# xmcd
#
# Track frame offsets: 
#        150
#        9159
#        27093
#        47584
#        64030
#        80681
#        105091
#        133151
#        150211
#        168978
#        185120
#        206771
#
# Disc length: 3088 seconds
#
# Revision: 1
# Processed by: cddbd v1.5.2PL0 Copyright (c) Steve Scherf et al.
# Submitted via: ExactAudioCopy v1.0b3
#
DISCID=8d0c0e0c
DTITLE=SOUND HOLIC - 想 -OMOI-
DYEAR=2009
DGENRE=東方アレンジ
TTITLE0=Scarlet Rhapsody.
TTITLE1=Earthquake Super Shock
TTITLE2=touchless
TTITLE3=Rainy, rainy days
TTITLE4=A long long time ago
TTITLE5=Ogre who cries
TTITLE6=遠い世界のunknownX
TTITLE7=しゅわスパ大作戦☆
TTITLE8=全人類ノ非想天則
TTITLE9=Phugoid Heaven
TTITLE10=THE EVENING STAR
TTITLE11=粉雪のシンフォニー
EXTD=YEAR: 2009
EXTT0=
EXTT1=
EXTT2=
EXTT3=
EXTT4=
EXTT5=
EXTT6=
EXTT7=
EXTT8=
EXTT9=
EXTT10=
EXTT11=
PLAYORDER=
